<svg xmlns="http://www.w3.org/2000/svg" viewBox="0 0 512 512">
  <defs>
    <linearGradient id="bg" x1="0" y1="0" x2="1" y2="1">
      <stop offset="0" stop-color="#f9dfa4"/>
      <stop offset="1" stop-color="#d9a94f"/>
    </linearGradient>
    <linearGradient id="gold" x1="0" y1="0" x2="1" y2="1">
      <stop offset="0" stop-color="#f6d98f"/>
      <stop offset="1" stop-color="#c88a2e"/>
    </linearGradient>
  </defs>
  <rect width="512" height="512" rx="112" fill="url(#bg)"/>
  <circle cx="102" cy="102" r="33" fill="#fff8e8" opacity=".55"/>
  <circle cx="414" cy="413" r="42" fill="#fff8e8" opacity=".42"/>
  <rect x="103" y="93" width="306" height="326" rx="48" fill="#fffaf0" stroke="#6b4525" stroke-width="15"/>
  <rect x="120" y="110" width="272" height="292" rx="35" fill="none" stroke="url(#gold)" stroke-width="9"/>
  <path d="M167 335V278M230 335V222M293 335V252M356 335V172" stroke="#c88a2e" stroke-width="31" stroke-linecap="round"/>
  <path d="M162 204l64-46 63 26 70-64" fill="none" stroke="#7a4a24" stroke-width="16" stroke-linecap="round" stroke-linejoin="round"/>
  <path d="M335 120h24v25" fill="none" stroke="#7a4a24" stroke-width="16" stroke-linecap="round"/>
  <path d="M163 370h194" stroke="#6b4525" stroke-width="14" stroke-linecap="round"/>
  <g fill="#fff8e8" stroke="#c88a2e" stroke-width="4">
    <path d="M78 78l7 18 18 7-18 7-7 18-7-18-18-7 18-7z"/>
    <path d="M431 69l5 13 13 5-13 5-5 13-5-13-13-5 13-5z"/>
    <path d="M430 407l6 15 15 6-15 6-6 15-6-15-15-6 15-6z"/>
  </g>
</svg>
