<svg xmlns="http://www.w3.org/2000/svg" viewBox="0 0 512 512">
  <defs>
    <linearGradient id="bg" x1="0" y1="0" x2="1" y2="1">
      <stop offset="0" stop-color="#f9dfa4"/>
      <stop offset="1" stop-color="#d9a94f"/>
    </linearGradient>
    <linearGradient id="gold" x1="0" y1="0" x2="1" y2="1">
      <stop offset="0" stop-color="#f6d98f"/>
      <stop offset="1" stop-color="#c88a2e"/>
    </linearGradient>
  </defs>
  <rect width="512" height="512" rx="112" fill="url(#bg)"/>
  <circle cx="406" cy="103" r="30" fill="#fff8e8" opacity=".55"/>
  <rect x="92" y="98" width="328" height="316" rx="48" fill="#fffaf0" stroke="#6b4525" stroke-width="16"/>
  <path d="M92 182h328" stroke="#6b4525" stroke-width="16"/>
  <path d="M164 72v65M348 72v65" stroke="#6b4525" stroke-width="22" stroke-linecap="round"/>
  <g stroke="#c88a2e" stroke-width="13" stroke-linecap="round">
    <path d="M144 235h71M144 290h71M144 345h71"/>
    <path d="M270 235h97M270 290h97M270 345h97"/>
  </g>
  <circle cx="238" cy="235" r="12" fill="#7a4a24"/>
  <circle cx="238" cy="290" r="12" fill="#d9a94f"/>
  <circle cx="238" cy="345" r="12" fill="#e8c474"/>
  <path d="M322 373l34 34 70-83" fill="none" stroke="#7a4a24" stroke-width="20" stroke-linecap="round" stroke-linejoin="round"/>
  <g fill="#fff8e8" stroke="#c88a2e" stroke-width="4">
    <path d="M74 75l7 18 18 7-18 7-7 18-7-18-18-7 18-7z"/>
    <path d="M437 72l5 13 13 5-13 5-5 13-5-13-13-5 13-5z"/>
  </g>
</svg>
